Coordinates
version=1
nRows=22
nColumns=24
inDegrees=yes

Units are S.I. units (second, meters, Newtons, ...)
Angles are in degrees.

endheader
time	pelvis_tilt	pelvis_list	pelvis_rotation	pelvis_tx	pelvis_ty	pelvis_tz	hip_flexion_r	hip_adduction_r	hip_rotation_r	knee_angle_r	ankle_angle_r	subtalar_angle_r	mtp_angle_r	hip_flexion_l	hip_adduction_l	hip_rotation_l	knee_angle_l	ankle_angle_l	subtalar_angle_l	mtp_angle_l	lumbar_extension	lumbar_bending	lumbar_rotation
      0.50400000	     -1.14021044	      2.90690779	      1.19968195	     -0.79368788	      1.00001972	      0.30167972	     25.28932677	     -3.02598290	     -4.44272806	     -4.08219480	     -1.43338161	     -9.28016964	    -11.72853139	    -11.20663728	      4.46651433	     -8.52529090	     -8.27472552	     14.09755628	     -5.60561936	    -19.83362370	     -9.84816851	     -3.22313515	     -0.28197504
      0.50816667	     -0.96833425	      2.77570867	      1.20632536	     -0.78776214	      0.99951103	      0.30202217	     25.00611291	     -2.84546124	     -4.48425213	     -4.30411651	     -1.66445983	     -9.35137431	    -11.48368347	    -11.53763064	      4.22889237	     -8.60945031	     -8.76492890	     14.40994790	     -5.23951042	    -19.96344632	     -9.99692341	     -3.01841364	     -0.25880276
      0.51233333	     -0.80749516	      2.64386476	      1.13438203	     -0.78177428	      0.99898132	      0.30252390	     24.76121389	     -2.62609209	     -4.46215944	     -4.60249256	     -1.91375560	     -9.47790895	    -11.28931464	    -11.86606506	      4.00576450	     -8.74126567	     -9.24121831	     14.68553257	     -4.98142538	    -20.07486502	    -10.11980131	     -2.82678784	     -0.22729245
      0.51650000	     -0.63800467	      2.51192945	      1.08517326	     -0.77582095	      0.99851861	      0.30303733	     24.50058688	     -2.41221601	     -4.44404232	     -4.92435530	     -2.16475760	     -9.62405408	    -11.06331612	    -12.15446428	      3.76257882	     -8.90495633	     -9.81017686	     14.88229887	     -4.61845978	    -20.20800325	    -10.26875949	     -2.63043663	     -0.16725992
      0.52066667	     -0.59590768	      2.45775511	      1.02361380	     -0.76988777	      0.99787683	      0.30346986	     24.43998267	     -2.29038584	     -4.46823592	     -5.39705088	     -2.35504183	     -9.65112512	    -11.04032870	    -12.30706910	      3.63720974	     -8.91474015	    -10.35136704	     14.88476074	     -4.67192366	    -20.22198571	    -10.25948912	     -2.52307273	     -0.15368088
      0.52483333	     -0.36160164	      2.23552850	      0.99068457	     -0.76378634	      0.99765545	      0.30395839	     24.06036990	     -1.98715688	     -4.49584918	     -5.69284348	     -2.74530369	     -9.94357453	    -10.84848063	    -12.63755689	      3.28537965	     -9.07944598	    -10.98609690	     15.11760656	     -4.22865834	    -20.29177637	    -10.47062199	     -2.21559875	     -0.08952276
      0.52900000	     -0.24917286	      2.08889585	      0.89994185	     -0.75771622	      0.99724116	      0.30453885	     23.87406604	     -1.74484245	     -4.47610029	     -6.11374338	     -3.07820957	    -10.14329847	    -10.63096683	    -12.81971664	      3.03712075	     -9.22359377	    -11.64487305	     15.20189322	     -4.02088797	    -20.35707854	    -10.53777238	     -2.00631968	     -0.02405228
      0.53316667	     -0.17701020	      1.97513924	      0.82150180	     -0.75166031	      0.99682152	      0.30500242	     23.74373904	     -1.55727236	     -4.49640584	     -6.57394784	     -3.41398942	    -10.22364383	    -10.54535986	    -12.93916550	      2.84208456	     -9.26058736	    -12.32306262	     15.18667917	     -4.04016769	    -20.37176019	    -10.55490687	     -1.81255890	      0.01687510
      0.53733333	      0.00364163	      1.80934865	      0.75409239	     -0.74559527	      0.99665115	      0.30557034	     23.46038214	     -1.30376276	     -4.50010112	     -6.97758011	     -3.82589348	    -10.53311562	    -10.31858315	    -13.13796205	      2.56036083	     -9.37506715	    -13.06705057	     15.12830777	     -3.84663659	    -20.36065180	    -10.71458222	     -1.58632093	      0.05638206
      0.54150000	      0.04314390	      1.68507853	      0.67600445	     -0.73948592	      0.99630800	      0.30603384	     23.35508512	     -1.11308063	     -4.54349700	     -7.43819171	     -4.24296307	    -10.61094368	    -10.23567355	    -13.16536284	      2.34950915	     -9.41362271	    -13.84829890	     15.00699419	     -3.89901255	    -20.34470407	    -10.69154800	     -1.38289781	      0.10700215
      0.54566667	      0.23417156	      1.51719123	      0.54469755	     -0.73340264	      0.99624031	      0.30674110	     23.06025416	     -0.83367538	     -4.47229805	     -7.83665195	     -4.74408776	    -10.94652766	     -9.83740771	    -13.32141804	      2.06838330	     -9.61449455	    -14.69440621	     14.88431463	     -3.73739298	    -20.17228065	    -10.86444597	     -1.15957654	      0.17231683
      0.54983333	      0.26225027	      1.38326280	      0.48912634	     -0.72728073	      0.99601317	      0.30718027	     22.95259942	     -0.64737995	     -4.53802265	     -8.28738912	     -5.18633408	    -11.07239261	     -9.75312083	    -13.26231247	      1.83523984	     -9.62882573	    -15.59537618	     14.61109864	     -3.84094423	    -20.12249794	    -10.83081427	     -0.94390462	      0.24128682
      0.55400000	      0.33256348	      1.25114540	      0.40550485	     -0.72118841	      0.99590587	      0.30770367	     22.79191626	     -0.44796330	     -4.54498133	     -8.71349516	     -5.69000284	    -11.29186381	     -9.64874892	    -13.21525048	      1.60117864	     -9.68544029	    -16.55104310	     14.30209397	     -3.92470600	    -20.03774978	    -10.85572251	     -0.73324161	      0.28495505
      0.55816667	      0.30791399	      1.13397195	      0.14035712	     -0.71509635	      0.99557438	      0.30881585	     22.77640022	     -0.16098259	     -4.27949578	     -9.18844947	     -6.21578230	    -11.75912158	     -5.18226571	    -13.02440586	      1.36421198	    -10.07727061	    -17.61228287	     13.93692682	     -3.88132656	    -15.04132830	    -10.76898847	     -0.61325100	      0.45592339
      0.56233333	      0.42857803	      0.97770517	      0.09859073	     -0.70898100	      0.99570987	      0.30918801	     22.53598950	      0.02449901	     -4.38397663	     -9.58851825	     -6.69817342	    -11.85030745	     -5.18987003	    -12.96032768	      1.09685502	    -10.08600171	    -18.66442895	     13.43278563	     -4.06400458	    -14.98675052	    -10.85832460	     -0.35642022	      0.54308691
      0.56650000	      0.55423906	      0.83027727	      0.01769712	     -0.70293494	      0.99587628	      0.30972497	     22.28670024	      0.22897241	     -4.36669665	     -9.97273002	     -7.15012890	    -12.07490832	     -5.18830938	    -12.84752024	      0.82796028	    -10.16376381	    -19.82168337	     12.90762230	     -4.27138012	    -14.84604278	    -10.96293090	     -0.14103800	      0.58070036
      0.57066667	      0.63347642	      0.67353162	     -0.09755115	     -0.69683689	      0.99600004	      0.31030278	     22.11080270	      0.44345178	     -4.37839680	    -10.41600230	     -7.54520849	    -12.18744971	     -5.18271819	    -12.65237497	      0.54586527	    -10.31308681	    -21.03281411	     12.35112565	     -4.40359287	    -14.72646599	    -11.00923328	      0.10019613	      0.64919382
      0.57483333	      0.70330469	      0.53033639	     -0.31303894	     -0.69078689	      0.99610562	      0.31122076	     21.94791691	      0.70533740	     -4.19317892	    -10.84495077	     -7.96015947	    -12.48968950	     -4.57275083	    -12.41377938	      0.26620134	    -10.62418096	    -22.27383954	     11.42118230	     -4.84533530	     -4.08914815	    -11.05118146	      0.27102258	      0.85996499
      0.57900000	      0.75843857	      0.36018071	     -0.41782422	     -0.68472263	      0.99629065	      0.31180157	     21.78315336	      0.92277202	     -4.19886142	    -11.27824373	     -8.24669793	    -12.54719685	     -4.57703686	    -12.09022008	     -0.05446319	    -10.78440450	    -23.65694633	     10.75062609	     -5.00017863	     -4.07372832	    -11.07599823	      0.52183911	      0.93205925
      0.58316667	      0.78667570	      0.21261092	     -0.58850103	     -0.67872346	      0.99645114	      0.31259822	     21.65138064	      1.15651082	     -4.07194106	    -11.69984372	     -8.60128531	    -12.77089372	     -4.58494211	    -11.69598236	     -0.35883149	    -11.02932622	    -25.10184803	      9.97096429	     -5.27667611	     -3.95075746	    -11.07532095	      0.71557269	      1.07765966
      0.58733333	      0.80908002	      0.03816415	     -0.75636823	     -0.67269639	      0.99663271	      0.31336027	     21.51965103	      1.40630502	     -3.98200915	    -12.13074561	     -8.83385724	    -12.86460188	     -4.59109722	    -11.25322692	     -0.70575211	    -11.29478699	    -26.62057179	      9.15839120	     -5.50592135	     -3.75637645	    -11.05958505	      0.94723698	      1.24709350
      0.59150000	      1.27903880	     -0.97344316	     -3.36199746	     -0.66460310	      0.99678249	      0.32328151	     20.58967574	      4.03572622	     -0.40359961	    -12.02008638	     -9.66837769	    -15.59968647	     -4.80326227	    -11.85305931	     -2.92406367	    -18.05998037	    -27.27781886	      9.23834111	    -10.65603767	     -3.75637645	    -11.38745952	      1.14656790	      4.12555625
